<svg  xmlns="http://www.w3.org/2000/svg" viewBox="0 0 469.61 250.49"><defs><style>.cls-1{fill:#86b7fe;fill-rule:evenodd;}</style></defs><title>Asset 2</title><g id="Layer_2" data-name="Layer 2"><g id="Layer_1-2" data-name="Layer 1"><path class="cls-1" d="M2.71,221.8l36.56-61.88a2.27,2.27,0,0,1,.8-.77c12-6.55,23.65-3.37,29.08,6.15l26.59,46.64L71.29,250.49H13.12a2.17,2.17,0,0,1-1.08-.3C.19,243.1-2.9,231.3,2.71,221.8Z"/><path class="cls-1" d="M183.73,250.49H154.31L69.79,108.28,86,78.83a18.58,18.58,0,0,1,16.46-9.49h31.3l82.41,141.53-15.66,29.51a18.61,18.61,0,0,1-16.8,10.11Z"/><path class="cls-1" d="M326.13,250.49H274.28L189.34,107.58l22.14-38.24h42.26l91.83,157.71a2.46,2.46,0,0,1,.27,1c-.12,13.79-8.69,22.42-19.71,22.42Z"/><path class="cls-1" d="M391.21,0H435.9A2.18,2.18,0,0,1,437,.3c11.85,7.1,14.95,18.89,9.33,28.39l-45.85,77.58,68.87,120.94a2.14,2.14,0,0,1,.27,1.08c-.26,13.68-8.77,22.2-19.73,22.2H393.63L312.31,107.88l62.84-99A18.54,18.54,0,0,1,391.21,0Z"/></g></g></svg>